<svg xmlns="http://www.w3.org/2000/svg" viewBox="0 0 28.448 19.176" color="var(--color-veryHight)" stroke="var(--color-veryHight)" class="basicIconStyles__Svg-sc-h2khud-0 LbuhQ"><path id="Trazado_1593" data-name="Trazado 1593" d="M26.919,9.571a.329.329,0,0,0-.26-.113H6.259V7.9a.349.349,0,0,0-.373-.373H3.263a.373.373,0,1,0,0,.746H5.509V26.1a.349.349,0,0,0,.373.373.416.416,0,0,0,.373-.415V24.112h9.256v1.86a.349.349,0,0,0,.372.373H29.191a.374.374,0,0,0,.373-.373v-1.86h1.173a.381.381,0,0,0,.373-.414V13.909A.333.333,0,0,0,31,13.65Zm1.9,16.028h-.712v-.486a.373.373,0,0,0-.745,0V25.6H26.044v-.486a.373.373,0,0,0-.745,0V25.6h-1.36v-.486a.373.373,0,0,0-.745,0V25.6H21.88v-.486a.373.373,0,0,0-.745,0V25.6h-1.36v-.486a.373.373,0,1,0-.746,0V25.6H17.716v-.486a.373.373,0,0,0-.745,0V25.6h-.716V24.112H28.818Zm1.547-2.232H6.255V10.2H26.512l3.853,3.853Z" transform="translate(-2.777 -7.412)" stroke-miterlimit="10" stroke-width="0.227"></path><path id="Trazado_1594" data-name="Trazado 1594" d="M16.083,19.817a4.368,4.368,0,0,0,1.161-3.032c0-.016,0-.031,0-.046v-.056a.351.351,0,0,0-.009-.17V16.5a4.5,4.5,0,0,0-4.482-4.21h-.061a.362.362,0,0,0-.151,0,4.511,4.511,0,0,0-2.923,1.275l-.009.009H9.6a.34.34,0,0,0-.079.035.407.407,0,0,0-.193.256v.012l-.009.01A4.5,4.5,0,0,0,8.26,16.781q0,.022,0,.044v.041l-.006.018a.376.376,0,0,0,.011.168v.012a4.489,4.489,0,0,0,1.34,2.925l.016.025a.417.417,0,0,0,.171.159l.014.008a4.485,4.485,0,0,0,2.947,1.1h.168A.411.411,0,0,0,13,21.276a4.52,4.52,0,0,0,2.969-1.334.434.434,0,0,0,.118-.125Zm-.595-5.566.041-.025.031.036a3.74,3.74,0,0,1,.874,1.76l.016.082-.083-.015a2.424,2.424,0,0,0-1.735.185,1.861,1.861,0,0,1-.386.211l-.062.025-.015-.066a1.352,1.352,0,0,0-.065-.212l-.01-.026.014-.024a3.089,3.089,0,0,0,.352-.869,1.964,1.964,0,0,1,.927-1A.836.836,0,0,1,15.488,14.252Zm-2.613-1.209.01-.046h.048a3.729,3.729,0,0,1,1.938.652l.068.048-.068.046a2.537,2.537,0,0,0-1.164,1.422,1.959,1.959,0,0,1-.105.333l-.026.063-.057-.037a1.429,1.429,0,0,0-.173-.1l-.027-.012v-.029a2.2,2.2,0,0,0-.394-.93C12.682,14.172,12.764,13.531,12.875,13.042Zm-2.661.94a3.729,3.729,0,0,1,1.825-.92l.083-.016-.016.083a2.451,2.451,0,0,0,.176,1.778,1.836,1.836,0,0,1,.2.348l.026.062-.066.016a1.325,1.325,0,0,0-.248.08l-.027.011-.025-.015a3.049,3.049,0,0,0-.907-.372,2.044,2.044,0,0,1-1.031-.985l-.025-.041ZM9,16.7V16.66a3.74,3.74,0,0,1,.61-1.965l.046-.07.049.069a2.291,2.291,0,0,0,1.376,1.1,1.982,1.982,0,0,1,.408.136l.058.027-.033.054a1.46,1.46,0,0,0-.113.227l-.011.031-.033.006a2.161,2.161,0,0,0-.932.39.933.933,0,0,1-.589.152,3.793,3.793,0,0,1-.787-.1Zm1.055,2.633-.032-.034a3.758,3.758,0,0,1-.937-1.768l-.022-.079.085.016a3.893,3.893,0,0,0,.719.078,2.011,2.011,0,0,0,1.01-.253,1.8,1.8,0,0,1,.406-.219l.059-.022.016.06a1.555,1.555,0,0,0,.075.209l.012.027-.015.026a3.092,3.092,0,0,0-.384.925A1.983,1.983,0,0,1,10.1,19.31Zm2.586,1.107-.01.048h-.048a3.717,3.717,0,0,1-1.906-.631l-.068-.045.067-.048a2.442,2.442,0,0,0,1.071-1.36,2.013,2.013,0,0,1,.147-.426l.028-.059.054.035a1.431,1.431,0,0,0,.164.092l.028.014v.032a2.153,2.153,0,0,0,.407,1.02c.228.267.162.874.065,1.329Zm.113-2.956a.709.709,0,0,1-.552-.279.553.553,0,0,0-.054-.08.68.68,0,0,1-.1-.34.72.72,0,0,1,.7-.7.7.7,0,0,1,.461.184l.012.011V16.3a.47.47,0,0,0,.113.186l.014.006.033.015.009.02a.68.68,0,0,1,.056.265.708.708,0,0,1-.27.543l-.01.007a.485.485,0,0,0-.087.06h-.009a.68.68,0,0,1-.328.09Zm2.518,2.032a3.72,3.72,0,0,1-1.792.907l-.082.016.015-.082a2.389,2.389,0,0,0-.193-1.691A1.788,1.788,0,0,1,13,18.238l-.023-.061.065-.014a1.36,1.36,0,0,0,.233-.071l.027-.01.024.015a3.135,3.135,0,0,0,.95.4,2.007,2.007,0,0,1,1.012.957l.026.04Zm.567-.645-.046.067-.046-.067a2.47,2.47,0,0,0-1.371-1.088,1.975,1.975,0,0,1-.414-.141l-.06-.028.039-.056a1.465,1.465,0,0,0,.133-.227l.012-.026h.028a3.181,3.181,0,0,0,.977-.39c.271-.227.893-.153,1.36-.049l.046.01v.048a3.74,3.74,0,0,1-.666,1.946Z" transform="translate(-2.777 -7.412)" stroke-miterlimit="10" stroke-width="0.227"></path><path id="Trazado_1595" data-name="Trazado 1595" d="M23.869,12.291h-.1a.376.376,0,0,0-.162.009h-.012a4.5,4.5,0,0,0-2.851,1.266l-.009.009h-.012a.34.34,0,0,0-.079.035.407.407,0,0,0-.193.256v.012l-.009.01a4.5,4.5,0,0,0-1.057,2.884v.016l-.008.014a.3.3,0,0,0-.035.084.38.38,0,0,0,.053.275l.007.011v.014a4.512,4.512,0,0,0,1.257,2.737l.009.009v.014a.309.309,0,0,0,.035.078.408.408,0,0,0,.235.175h.014l.009.008a4.487,4.487,0,0,0,2.914,1.074h.17a.318.318,0,0,0,.057,0,4.494,4.494,0,0,0,2.932-1.31l.017-.017h.027a.422.422,0,0,0,.167-.2l.01-.017a4.48,4.48,0,0,0-3.38-7.437ZM26.6,14.257l.041-.025.032.035a3.76,3.76,0,0,1,.878,1.762l.017.084-.083-.017a2.464,2.464,0,0,0-1.78.178,1.728,1.728,0,0,1-.357.2l-.06.026-.011-.067a1.415,1.415,0,0,0-.06-.185l-.011-.026.015-.025a3.06,3.06,0,0,0,.364-.887,1.839,1.839,0,0,1,.816-.926c.06-.04.129-.084.2-.127Zm-2.646-1.216.01-.045h.048a3.72,3.72,0,0,1,1.971.66l.068.046-.068.048a2.521,2.521,0,0,0-1.153,1.416,1.99,1.99,0,0,1-.122.369l-.026.06-.056-.034a1.5,1.5,0,0,0-.2-.107l-.028-.012-.006-.031a2.166,2.166,0,0,0-.4-.954c-.237-.283-.154-.927-.043-1.416Zm-2.619.941a3.74,3.74,0,0,1,1.78-.912l.084-.017-.016.084a2.451,2.451,0,0,0,.178,1.77,1.827,1.827,0,0,1,.215.393l.024.061-.063.015a1.379,1.379,0,0,0-.187.057l-.026.01-.024-.015a3.113,3.113,0,0,0-.942-.394,2.029,2.029,0,0,1-1.031-.985l-.025-.04Zm-1.212,2.73V16.66a3.731,3.731,0,0,1,.6-1.955l.046-.073.049.071A2.288,2.288,0,0,0,22.2,15.781a1.962,1.962,0,0,1,.413.139l.059.027L22.639,16a1.285,1.285,0,0,0-.113.218l-.014.031h-.032a2.167,2.167,0,0,0-.985.4.919.919,0,0,1-.587.152,3.675,3.675,0,0,1-.743-.091Zm1.08,2.581-.04.025-.033-.034a3.771,3.771,0,0,1-.92-1.743l-.018-.084.084.016a3.808,3.808,0,0,0,.68.07,1.878,1.878,0,0,0,1-.246,1.759,1.759,0,0,1,.453-.236l.058-.02.016.059a1.473,1.473,0,0,0,.061.185l.011.027-.015.025a3.134,3.134,0,0,0-.408.964,1.741,1.741,0,0,1-.737.868c-.067.041-.128.083-.193.124Zm2.561,1.149-.01.048H23.7a3.712,3.712,0,0,1-1.927-.646L21.71,19.8l.066-.048a2.43,2.43,0,0,0,1.051-1.343,1.939,1.939,0,0,1,.158-.453l.029-.059.053.037a1.634,1.634,0,0,0,.2.113l.028.014v.032a2.153,2.153,0,0,0,.407,1.02C23.926,19.38,23.859,19.986,23.761,20.442Zm.113-2.956a.7.7,0,1,1,0-1.4.653.653,0,0,1,.475.211l.012.019a.468.468,0,0,0,.105.167h.009l.018.022a.92.92,0,0,1,.08.271v.042a.443.443,0,0,0-.039.18v.027a.737.737,0,0,1-.227.3l-.01.007a.471.471,0,0,0-.085.058.68.68,0,0,1-.346.1Zm2.519,2.033a3.728,3.728,0,0,1-1.792.907l-.082.016.015-.082a2.394,2.394,0,0,0-.194-1.691,1.792,1.792,0,0,1-.227-.428l-.024-.062.066-.014a1.412,1.412,0,0,0,.24-.069l.026-.01.024.015a3.088,3.088,0,0,0,.943.4,2.043,2.043,0,0,1,1.02.957l.025.041Zm.567-.645-.046.067-.046-.067a3.256,3.256,0,0,0-.845-.861,1.6,1.6,0,0,0-.526-.227,2.024,2.024,0,0,1-.4-.133l-.062-.028.04-.057a1.377,1.377,0,0,0,.137-.247l.011-.027.028-.006a3.192,3.192,0,0,0,.913-.381c.28-.233.924-.151,1.412-.04l.046.01v.049a3.74,3.74,0,0,1-.673,1.947Z" transform="translate(-2.777 -7.412)" stroke-miterlimit="10" stroke-width="0.227"></path></svg>