<svg xmlns="http://www.w3.org/2000/svg" viewBox="0 0 22.243 28.447" color="var(--color-veryHight)" stroke="var(--color-veryHight)" class="basicIconStyles__Svg-sc-h2khud-0 LbuhQ"><path id="Trazado_1497" data-name="Trazado 1497" d="M26.891,2.89H7.109A1.121,1.121,0,0,0,5.992,4.007V29.993A1.121,1.121,0,0,0,7.109,31.11H26.891a1.121,1.121,0,0,0,1.117-1.117V4.007A1.121,1.121,0,0,0,26.891,2.89ZM10.2,3.665H23.721V6.449a.34.34,0,0,1-.34.34h-.588V4.955a.634.634,0,0,0-.631-.631H19.493a.634.634,0,0,0-.63.631V6.791h-.926V4.955a.634.634,0,0,0-.631-.631h-5.82a.634.634,0,0,0-.631.631V6.791H10.54a.34.34,0,0,1-.34-.34ZM22.014,5.1V6.791h-.8V5.1Zm-1.576,0V6.791h-.8V5.1Zm-3.276,0V6.791h-.8V5.1Zm-1.576,0V6.791h-.8V5.1Zm-1.576,0V6.791h-.8V5.1Zm-1.576,0V6.791h-.8V5.1ZM26.891,30.335H7.109a.34.34,0,0,1-.34-.34V4.007a.34.34,0,0,1,.34-.34H9.42V6.449a1.121,1.121,0,0,0,1.12,1.117H23.378A1.12,1.12,0,0,0,24.5,6.449V3.665h2.395a.34.34,0,0,1,.34.34V29.993a.34.34,0,0,1-.34.342Z" transform="translate(-5.879 -2.777)" stroke-miterlimit="10" stroke-width="0.227"></path><path id="Trazado_1498" data-name="Trazado 1498" d="M23.129,9.9H10.787A1.121,1.121,0,0,0,9.67,11.014V26.173a1.121,1.121,0,0,0,1.117,1.117H23.129a1.121,1.121,0,0,0,1.117-1.117V11.014A1.121,1.121,0,0,0,23.129,9.9ZM10.446,11.014a.34.34,0,0,1,.34-.34H23.128a.34.34,0,0,1,.34.34v.4a2.248,2.248,0,0,1-.07.435,13.572,13.572,0,0,1-2.132,5.68,6.017,6.017,0,0,1-4.461,2.392l-.045.007c-.261.044-.532.088-.793.142a9.909,9.909,0,0,0-5.494,3.706l-.025.032ZM23.471,26.173a.34.34,0,0,1-.34.34H10.787a.34.34,0,0,1-.34-.34V25.08h0c.113-.148.236-.3.349-.453.2-.262.4-.532.622-.776a8.9,8.9,0,0,1,4.7-3.019c.269-.053.546-.1.816-.143h0c3.292-.375,5.3-2.17,6.508-5.823l.027-.084Z" transform="translate(-5.879 -2.777)" stroke-miterlimit="10" stroke-width="0.227"></path><path id="Trazado_1499" data-name="Trazado 1499" d="M11.793,15.628a.38.38,0,0,0,.385.389h3.793a.389.389,0,0,0,0-.776H12.179a.38.38,0,0,0-.385.388Z" transform="translate(-5.879 -2.777)" stroke-miterlimit="10" stroke-width="0.227"></path><path id="Trazado_1500" data-name="Trazado 1500" d="M8.172,28.609a.385.385,0,0,0-.385.385.377.377,0,0,0,.385.383h0a.377.377,0,0,0,.386-.383.386.386,0,0,0-.386-.385Z" transform="translate(-5.879 -2.777)" stroke-miterlimit="10" stroke-width="0.227"></path><path id="Trazado_1501" data-name="Trazado 1501" d="M26.311,5.386a.386.386,0,0,0-.772,0,.377.377,0,0,0,.385.383h0a.377.377,0,0,0,.386-.383Z" transform="translate(-5.879 -2.777)" stroke-miterlimit="10" stroke-width="0.227"></path><path id="Trazado_1502" data-name="Trazado 1502" d="M11.793,12.949a.379.379,0,0,0,.385.388h5.37a.389.389,0,0,0,0-.776h-5.37a.38.38,0,0,0-.385.389Z" transform="translate(-5.879 -2.777)" stroke-miterlimit="10" stroke-width="0.227"></path><path id="Trazado_1503" data-name="Trazado 1503" d="M8.172,5a.386.386,0,0,0-.385.386.377.377,0,0,0,.385.383h0a.377.377,0,0,0,.386-.384A.386.386,0,0,0,8.172,5Z" transform="translate(-5.879 -2.777)" stroke-miterlimit="10" stroke-width="0.227"></path><path id="Trazado_1504" data-name="Trazado 1504" d="M25.925,28.609a.376.376,0,1,0,.386.385.386.386,0,0,0-.386-.385Z" transform="translate(-5.879 -2.777)" stroke-miterlimit="10" stroke-width="0.227"></path></svg>