<svg xmlns="http://www.w3.org/2000/svg" viewBox="0 0 15.639 28.441" color="var(--color-veryHight)" stroke="var(--color-veryHight)" class="basicIconStyles__Svg-sc-h2khud-0 LbuhQ"><path id="Trazado_1547" data-name="Trazado 1547" d="M14.017,5.926h.83a.206.206,0,0,0,.16-.1.536.536,0,0,0,.056-.467.265.265,0,0,0-.215-.2H14.02a.2.2,0,0,0-.158.1.539.539,0,0,0-.053.47C13.841,5.823,13.915,5.926,14.017,5.926Z" transform="translate(-9.181 -2.777)" stroke-miterlimit="10" stroke-width="0.227"></path><path id="Trazado_1548" data-name="Trazado 1548" d="M17.465,5.161h-.831a.2.2,0,0,0-.151.1.551.551,0,0,0-.059.475c.043.113.128.195.21.195h.831a.2.2,0,0,0,.158-.1.539.539,0,0,0,.053-.47C17.632,5.242,17.547,5.161,17.465,5.161Z" transform="translate(-9.181 -2.777)" stroke-miterlimit="10" stroke-width="0.227"></path><path id="Trazado_1549" data-name="Trazado 1549" d="M19.983,5.161h-.83a.205.205,0,0,0-.155.1.541.541,0,0,0-.056.469c.043.113.128.2.211.2h.831a.205.205,0,0,0,.155-.1.534.534,0,0,0,.056-.469C20.151,5.243,20.066,5.161,19.983,5.161Z" transform="translate(-9.181 -2.777)" stroke-miterlimit="10" stroke-width="0.227"></path><path id="Trazado_1550" data-name="Trazado 1550" d="M16.433,7.5a.258.258,0,0,0-.214-.2h-.826a.2.2,0,0,0-.156.1.539.539,0,0,0-.05.47c.043.113.126.2.211.2h.831a.2.2,0,0,0,.153-.1.538.538,0,0,0,.052-.468Z" transform="translate(-9.181 -2.777)" stroke-miterlimit="10" stroke-width="0.227"></path><path id="Trazado_1551" data-name="Trazado 1551" d="M19,7.965a.534.534,0,0,0,.053-.464c-.022-.06-.084-.2-.216-.2H18.02a.21.21,0,0,0-.161.1.536.536,0,0,0-.054.468c.046.121.128.2.215.2h.826A.2.2,0,0,0,19,7.965Z" transform="translate(-9.181 -2.777)" stroke-miterlimit="10" stroke-width="0.227"></path><path id="Trazado_1552" data-name="Trazado 1552" d="M14.847,9.375H14.02a.205.205,0,0,0-.159.1.535.535,0,0,0-.052.465c.044.124.124.2.211.2h.826a.21.21,0,0,0,.162-.1.526.526,0,0,0,.053-.462C15.014,9.452,14.932,9.375,14.847,9.375Z" transform="translate(-9.181 -2.777)" stroke-miterlimit="10" stroke-width="0.227"></path><path id="Trazado_1553" data-name="Trazado 1553" d="M17.465,9.375h-.831a.2.2,0,0,0-.153.1.543.543,0,0,0-.057.469c.042.113.126.2.21.2h.831a.2.2,0,0,0,.159-.1.53.53,0,0,0,.052-.465C17.632,9.453,17.55,9.375,17.465,9.375Z" transform="translate(-9.181 -2.777)" stroke-miterlimit="10" stroke-width="0.227"></path><path id="Trazado_1554" data-name="Trazado 1554" d="M19.983,9.375h-.83a.205.205,0,0,0-.156.1.529.529,0,0,0-.054.464c.043.12.126.2.211.2h.831a.21.21,0,0,0,.158-.1.536.536,0,0,0,.053-.465C20.151,9.453,20.068,9.375,19.983,9.375Z" transform="translate(-9.181 -2.777)" stroke-miterlimit="10" stroke-width="0.227"></path><path id="Trazado_1555" data-name="Trazado 1555" d="M18.642,17.828a2.318,2.318,0,1,0-3.279,0,2.318,2.318,0,0,0,3.279,0Zm-2.71-2.709a1.515,1.515,0,0,1,1.834-.235l-.731.731a.21.21,0,0,0-.044.186.525.525,0,0,0,.289.365.26.26,0,0,0,.292-.012l.732-.733a1.513,1.513,0,1,1-2.372-.3Z" transform="translate(-9.181 -2.777)" stroke-miterlimit="10" stroke-width="0.227"></path><path id="Trazado_1556" data-name="Trazado 1556" d="M24.315,11.66H22.4V4.511A1.609,1.609,0,0,0,20.79,2.89H13.083A1.609,1.609,0,0,0,11.61,4.5V11.66H9.7a.4.4,0,0,0-.307.211l-.019.029a.4.4,0,0,0-.084.2v7.537A3.65,3.65,0,0,0,12.946,23.3H16.6v5.115H12.424a.418.418,0,0,0-.1.027h0a.4.4,0,0,0-.059.028l-.014.009a.361.361,0,0,0-.04.029.237.237,0,0,0-.025.023l-.022.024a.274.274,0,0,0-.031.041l-.009.014a.353.353,0,0,0-.028.059h0a.427.427,0,0,0-.027.1v1.981a.418.418,0,0,0,.027.1h0a.34.34,0,0,0,.028.058l.01.016a.462.462,0,0,0,.028.037l.024.026.023.022.041.029.014.009a.476.476,0,0,0,.059.029h0a.442.442,0,0,0,.1.027h9.146a.413.413,0,0,0,.1-.027h0a.453.453,0,0,0,.058-.028l.014-.009a.36.36,0,0,0,.04-.029.152.152,0,0,0,.024-.023l.024-.024c.01-.012.019-.026.028-.04l.01-.015a.34.34,0,0,0,.028-.058h0a.418.418,0,0,0,.027-.1v-1.98a.427.427,0,0,0-.027-.1h0a.287.287,0,0,0-.029-.059L21.86,28.6a.348.348,0,0,0-.031-.041.2.2,0,0,0-.022-.023.247.247,0,0,0-.025-.024l-.039-.028-.016-.01a.377.377,0,0,0-.057-.028h0a.412.412,0,0,0-.1-.027H17.4V23.3h3.65a3.65,3.65,0,0,0,3.654-3.662V12.013a.4.4,0,0,0-.392-.354ZM21.123,29.22v1.086H12.871V29.22ZM12.4,4.513a.823.823,0,0,1,.822-.822h7.559a.823.823,0,0,1,.822.822v7.149H12.4Zm0,9.234V12.467h9.2v6.925a.823.823,0,0,1-.822.822H13.218a.823.823,0,0,1-.822-.822Zm11.5,5.9A2.848,2.848,0,0,1,21.051,22.5h-8.1A2.848,2.848,0,0,1,10.1,19.645V12.467h1.506V19.4a1.608,1.608,0,0,0,1.609,1.609H20.79a1.608,1.608,0,0,0,1.61-1.614V12.467h1.5Z" transform="translate(-9.181 -2.777)" stroke-miterlimit="10" stroke-width="0.227"></path></svg>