<svg xmlns="http://www.w3.org/2000/svg" viewBox="0 0 28.447 21.504" color="var(--color-veryHight)" stroke="var(--color-veryHight)" class="basicIconStyles__Svg-sc-h2khud-0 LbuhQ"><path id="Trazado_1558" data-name="Trazado 1558" d="M30.729,6.364H3.271a.382.382,0,0,0-.381.381v15.85a.382.382,0,0,0,.381.381H14.691l-.34,2.04h-.145a2.249,2.249,0,0,0-2.245,2.245.382.382,0,0,0,.381.381h9.324a.381.381,0,0,0,.38-.381A2.247,2.247,0,0,0,19.8,25.015h-.145l-.34-2.04H30.729a.382.382,0,0,0,.381-.381V6.744a.382.382,0,0,0-.381-.381ZM19.8,25.772a1.386,1.386,0,0,1,1.289.986l.046.113H12.878l.044-.113a1.376,1.376,0,0,1,1.285-.987Zm-4.675-.762.34-2.04H18.55l.34,2.04Zm15.222-2.8H3.652V19.245h26.7Zm0-3.73H3.652V7.125h26.7Z" transform="translate(-2.777 -6.25)" stroke-miterlimit="10" stroke-width="0.227"></path><path id="Trazado_1559" data-name="Trazado 1559" d="M17.781,20.73a.776.776,0,1,0-.776.776.776.776,0,0,0,.776-.776Z" transform="translate(-2.777 -6.25)" stroke-miterlimit="10" stroke-width="0.227"></path></svg>