<svg xmlns="http://www.w3.org/2000/svg" viewBox="0 0 27.05 28.363" color="var(--color-veryHight)" stroke="var(--color-veryHight)" class="basicIconStyles__Svg-sc-h2khud-0 LbuhQ"><path id="Trazado_1537" data-name="Trazado 1537" d="M29.285,2.933H4.715A1.133,1.133,0,0,0,3.588,4.058V28.425a1.133,1.133,0,0,0,1.127,1.127h.839v.894a.624.624,0,0,0,.623.623h2.67a.626.626,0,0,0,.624-.623v-.894H23.245v.894a.626.626,0,0,0,.624.623h2.672a.624.624,0,0,0,.623-.623v-.894h2.12a1.133,1.133,0,0,0,1.127-1.127V4.058a1.133,1.133,0,0,0-1.127-1.125ZM19.827,6.472h6.5V9.562h-6.5Zm0,6.709h6.5v3.089h-6.5ZM8.727,30.322H6.3v-.773H8.727ZM17.218,28.8H4.715a.382.382,0,0,1-.381-.381V24.4H17.216Zm9.2,1.518H23.99v-.773h2.43Zm0-1.519h-8.46V24.032a.372.372,0,0,0-.372-.373H4.329V4.058a.383.383,0,0,1,.382-.381H19.082V19.439a.373.373,0,0,0,.372.373H26.42Zm0-9.738H19.827v-2.05H26.42Zm0-6.629H19.827V10.307H26.42Zm0-6.709H19.827V3.678H26.42ZM29.288,28.8H27.165V3.678h2.12a.382.382,0,0,1,.381.381V28.425a.383.383,0,0,1-.38.379Z" transform="translate(-3.475 -2.82)" stroke-miterlimit="10" stroke-width="0.227"></path><path id="Trazado_1538" data-name="Trazado 1538" d="M20.832,8.387a.372.372,0,0,0,.371-.371.363.363,0,0,0-.371-.367h0a.363.363,0,0,0-.371.368A.372.372,0,0,0,20.832,8.387Z" transform="translate(-3.475 -2.82)" stroke-miterlimit="10" stroke-width="0.227"></path><path id="Trazado_1539" data-name="Trazado 1539" d="M17.589,21.211a.369.369,0,0,0-.371.371.362.362,0,0,0,.371.367h0a.363.363,0,0,0,.371-.369.371.371,0,0,0-.371-.368Z" transform="translate(-3.475 -2.82)" stroke-miterlimit="10" stroke-width="0.227"></path><path id="Trazado_1540" data-name="Trazado 1540" d="M5.872,21.211a.371.371,0,0,0-.371.371.363.363,0,0,0,.371.367h0a.362.362,0,0,0,.369-.369.369.369,0,0,0-.369-.368Z" transform="translate(-3.475 -2.82)" stroke-miterlimit="10" stroke-width="0.227"></path><path id="Trazado_1541" data-name="Trazado 1541" d="M20.832,15.094a.362.362,0,0,0,.371-.368.371.371,0,1,0-.741,0,.362.362,0,0,0,.371.368Z" transform="translate(-3.475 -2.82)" stroke-miterlimit="10" stroke-width="0.227"></path><path id="Trazado_1542" data-name="Trazado 1542" d="M5.5,6.1a.371.371,0,1,0,.371-.371A.371.371,0,0,0,5.5,6.1Z" transform="translate(-3.475 -2.82)" stroke-miterlimit="10" stroke-width="0.227"></path><path id="Trazado_1543" data-name="Trazado 1543" d="M6.63,26.973H9.1a.373.373,0,1,0,0-.745H6.629a.373.373,0,0,0,0,.745Z" transform="translate(-3.475 -2.82)" stroke-miterlimit="10" stroke-width="0.227"></path><path id="Trazado_1544" data-name="Trazado 1544" d="M17.589,7.644H5.873a.373.373,0,0,0-.373.373V19.848a.372.372,0,0,0,.373.372H17.589a.372.372,0,0,0,.372-.372V8.017a.373.373,0,0,0-.372-.373Zm-.373,11.831H6.245V8.387H17.216Z" transform="translate(-3.475 -2.82)" stroke-miterlimit="10" stroke-width="0.227"></path><path id="Trazado_1545" data-name="Trazado 1545" d="M17.589,6.471A.372.372,0,0,0,17.96,6.1a.363.363,0,0,0-.372-.368h0a.362.362,0,0,0-.369.369A.371.371,0,0,0,17.589,6.471Z" transform="translate(-3.475 -2.82)" stroke-miterlimit="10" stroke-width="0.227"></path></svg>