<svg xmlns="http://www.w3.org/2000/svg" viewBox="0 0 21.443 28.22" color="var(--color-veryHight)" stroke="var(--color-veryHight)" class="basicIconStyles__Svg-sc-h2khud-0 LbuhQ"><path id="Trazado_1577" data-name="Trazado 1577" d="M27.42,9.833h0l-1.5-.879V6.71a.376.376,0,0,0-.274-.364L19.022,4.432V3.383a.38.38,0,0,0-.38-.38H15.356a.38.38,0,0,0-.38.38V4.432L8.352,6.347a.376.376,0,0,0-.274.365V14.38l-1.5.875a.383.383,0,0,0-.188.329V20.82a.383.383,0,0,0,.188.328l1.711,1,.01.05C9.2,26.52,12.693,31,17,31c4.942,0,8.923-5.96,8.923-10.895V18.573l1.5-.876a.38.38,0,0,0,.188-.328V10.16a.383.383,0,0,0-.188-.328ZM8.077,21.146,7.151,20.6V15.8l.926-.543Zm7.66-17.383h2.525V4.975H15.737Zm0,1.972h2.525v2.2H15.737Zm0,2.957h2.525V9.9H15.737ZM8.84,7l6.142-1.773v5.06a.38.38,0,0,0,.38.38h1.263V26.017l-.138-.032c-2.3-.519-3.967-4.182-3.967-6.4a.372.372,0,0,0-.029-.144.379.379,0,0,0-.082-.124L8.84,15.753ZM25.16,20.1c0,4.563-3.767,10.135-8.16,10.135S8.84,24.665,8.84,20.1V16.829l2.924,2.924V19.8c.1,2.823,2.351,7.01,5.237,7.01s5.133-4.187,5.237-7.01v-.044l2.924-2.924Zm0-4.349L21.6,19.319a.379.379,0,0,0-.082.124.372.372,0,0,0-.029.144c0,2.216-1.667,5.879-3.967,6.4l-.138.032V10.664h1.263a.38.38,0,0,0,.38-.38V5.224L25.16,7Zm1.685,1.4-.926.543V9.835l.926.544Z" transform="translate(-6.279 -2.89)" stroke-miterlimit="10" stroke-width="0.227"></path></svg>