<svg xmlns="http://www.w3.org/2000/svg" viewBox="0 0 28.447 20.089" color="var(--color-veryHight)" stroke="var(--color-veryHight)" class="basicIconStyles__Svg-sc-h2khud-0 LbuhQ"><path id="Trazado_1608" data-name="Trazado 1608" d="M19.876,9.33H3.947A1.06,1.06,0,0,0,2.89,10.387V20.563a1.06,1.06,0,0,0,1.057,1.059h5.8v1.423H6.16a.39.39,0,0,0-.377.283l-.885,3.1a.4.4,0,0,0,.379.507h12.83a.393.393,0,0,0,.314-.158.409.409,0,0,0,.065-.349l-.885-3.1a.39.39,0,0,0-.379-.283H13.634V21.622h6.242a1.06,1.06,0,0,0,1.057-1.059V10.387A1.06,1.06,0,0,0,19.876,9.33ZM16.923,23.836l.66,2.309H5.8l.664-2.311H9.747v.491a.394.394,0,0,0,.394.394h3.1a.394.394,0,0,0,.394-.394v-.491Zm-6.383.094V21.622h2.309V23.93Zm9.608-3.367a.261.261,0,0,1-.269.27H3.947a.261.261,0,0,1-.269-.27V10.387a.256.256,0,0,1,.269-.269H19.876a.256.256,0,0,1,.269.269Z" transform="translate(-2.777 -6.955)" stroke-miterlimit="10" stroke-width="0.227"></path><path id="Trazado_1609" data-name="Trazado 1609" d="M30.053,7.069H23.416a1.06,1.06,0,0,0-1.059,1.059V25.869a1.059,1.059,0,0,0,1.059,1.057h6.637a1.059,1.059,0,0,0,1.057-1.057V8.127a1.06,1.06,0,0,0-1.057-1.059Zm.269,18.8a.257.257,0,0,1-.269.27H23.416a.258.258,0,0,1-.27-.27V8.127a.258.258,0,0,1,.27-.27h6.637a.257.257,0,0,1,.269.27Z" transform="translate(-2.777 -6.955)" stroke-miterlimit="10" stroke-width="0.227"></path><rect id="Rectángulo_852" data-name="Rectángulo 852" width="5.212" height="0.789" rx="0.173" transform="translate(21.351 9.255)" stroke-miterlimit="10" stroke-width="0.227"></rect><path id="Trazado_1610" data-name="Trazado 1610" d="M26.734,18.133a1.5,1.5,0,1,0,1.5,1.5,1.5,1.5,0,0,0-1.5-1.5Zm0,2.212a.711.711,0,1,1,.5-.209.712.712,0,0,1-.5.209Z" transform="translate(-2.777 -6.955)" stroke-miterlimit="10" stroke-width="0.227"></path><path id="Trazado_1611" data-name="Trazado 1611" d="M26.734,22.578a.416.416,0,1,0,.415.416.416.416,0,0,0-.415-.416Z" transform="translate(-2.777 -6.955)" stroke-miterlimit="10" stroke-width="0.227"></path><rect id="Rectángulo_853" data-name="Rectángulo 853" width="4.328" height="0.789" rx="0.173" transform="translate(21.793 2.374)" stroke-miterlimit="10" stroke-width="0.227"></rect><rect id="Rectángulo_854" data-name="Rectángulo 854" width="4.328" height="0.789" rx="0.173" transform="translate(21.793 4.145)" stroke-miterlimit="10" stroke-width="0.227"></rect><rect id="Rectángulo_855" data-name="Rectángulo 855" width="4.328" height="0.789" rx="0.173" transform="translate(21.793 5.911)" stroke-miterlimit="10" stroke-width="0.227"></rect><path id="Trazado_1612" data-name="Trazado 1612" d="M26.734,24.349a.415.415,0,1,0,.415.415.415.415,0,0,0-.415-.415Z" transform="translate(-2.777 -6.955)" stroke-miterlimit="10" stroke-width="0.227"></path><path id="Trazado_1613" data-name="Trazado 1613" d="M11.689,19.216a.415.415,0,1,0,.415.415.415.415,0,0,0-.415-.415Z" transform="translate(-2.777 -6.955)" stroke-miterlimit="10" stroke-width="0.227"></path><rect id="Rectángulo_856" data-name="Rectángulo 856" width="17.18" height="0.739" transform="translate(0.324 10.805)" stroke-miterlimit="10" stroke-width="0.227"></rect></svg>