<svg xmlns="http://www.w3.org/2000/svg" viewBox="0 0 28.447 19.101" color="var(--color-veryHight)" stroke="var(--color-veryHight)" class="basicIconStyles__Svg-sc-h2khud-0 LbuhQ"><path id="Trazado_1514" data-name="Trazado 1514" d="M14.147,14.886l-.017-.016-.033-.029a2.757,2.757,0,0,0-1.732-.611,2.861,2.861,0,0,0-.309.017,2.76,2.76,0,0,0-1.839,1,.4.4,0,0,0,0,.559.41.41,0,0,0,.567,0,.38.38,0,0,0,.044-.053,1.981,1.981,0,0,1,2.743-.306.4.4,0,0,0,.567-.558Z" transform="translate(-2.777 -7.449)" stroke-miterlimit="10" stroke-width="0.227"></path><path id="Trazado_1515" data-name="Trazado 1515" d="M17.666,17.543a.4.4,0,0,0-.4.34h0a4.987,4.987,0,0,1-5.78,4.03.363.363,0,0,0-.069,0h-.01a.4.4,0,0,0-.04.793,5.79,5.79,0,0,0,6.68-4.675.371.371,0,0,0,.011-.092.4.4,0,0,0-.4-.4Z" transform="translate(-2.777 -7.449)" stroke-miterlimit="10" stroke-width="0.227"></path><path id="Trazado_1516" data-name="Trazado 1516" d="M6.61,17.641a5.748,5.748,0,0,0,2.1,3.853.4.4,0,0,0,.56-.567.348.348,0,0,0-.054-.046,4.987,4.987,0,0,1-.771-6.971.4.4,0,0,0-.009-.556.41.41,0,0,0-.549-.016l-.016.017a.391.391,0,0,0-.029.032A5.749,5.749,0,0,0,6.61,17.641Z" transform="translate(-2.777 -7.449)" stroke-miterlimit="10" stroke-width="0.227"></path><path id="Trazado_1517" data-name="Trazado 1517" d="M28.994,24.066h-.039a.4.4,0,0,0,0,.793h.039a.4.4,0,1,0,0-.793Z" transform="translate(-2.777 -7.449)" stroke-miterlimit="10" stroke-width="0.227"></path><path id="Trazado_1518" data-name="Trazado 1518" d="M15.691,19.04a.4.4,0,0,0,.53-.187,4.277,4.277,0,0,0-2.012-5.706.4.4,0,0,0-.34.717,3.488,3.488,0,0,1,1.638,4.647.4.4,0,0,0,.187.53Z" transform="translate(-2.777 -7.449)" stroke-miterlimit="10" stroke-width="0.227"></path><path id="Trazado_1519" data-name="Trazado 1519" d="M18.247,14.263l.034.071h0a6.489,6.489,0,0,1-3.173,8.557.4.4,0,1,0,.34.724,7.294,7.294,0,0,0,3.544-9.653l-.024-.048a.4.4,0,0,0-.716.347Z" transform="translate(-2.777 -7.449)" stroke-miterlimit="10" stroke-width="0.227"></path><path id="Trazado_1520" data-name="Trazado 1520" d="M13.019,18.875a.4.4,0,1,0,.265.751A2.778,2.778,0,0,0,15,16.136l-.018-.051c0-.016-.012-.031-.019-.046a.4.4,0,0,0-.731.311l.025.071h0a1.978,1.978,0,0,1-1.233,2.453Z" transform="translate(-2.777 -7.449)" stroke-miterlimit="10" stroke-width="0.227"></path><path id="Trazado_1521" data-name="Trazado 1521" d="M25.645,12.779a.4.4,0,0,0,.8,0v-.018a.4.4,0,1,0-.8,0Z" transform="translate(-2.777 -7.449)" stroke-miterlimit="10" stroke-width="0.227"></path><path id="Trazado_1522" data-name="Trazado 1522" d="M26.072,17.775H23.919a.4.4,0,0,0-.4.4v4.363a.4.4,0,0,0,.4.4h2.153a.4.4,0,0,0,.4-.4V18.174A.4.4,0,0,0,26.072,17.775Zm-.4,4.362H24.325v-1.02h1.349Zm0-1.813H24.325V18.579h1.349Z" transform="translate(-2.777 -7.449)" stroke-miterlimit="10" stroke-width="0.227"></path><path id="Trazado_1523" data-name="Trazado 1523" d="M22.532,11.22l-1.377,1.813a.4.4,0,0,0-.007.492l1.369,1.813a.4.4,0,0,0,.333.179h4.3a.394.394,0,0,0,.318-.159l1.377-1.813a.4.4,0,0,0,.008-.491l-1.369-1.813a.4.4,0,0,0-.334-.18h-4.3a.4.4,0,0,0-.318.159Zm.517.639h3.9l1.082,1.429L26.95,14.717h-3.9l-1.082-1.429Z" transform="translate(-2.777 -7.449)" stroke-miterlimit="10" stroke-width="0.227"></path><path id="Trazado_1524" data-name="Trazado 1524" d="M25.4,13.827a.4.4,0,0,0-.793,0h0a.4.4,0,1,0,.793,0Z" transform="translate(-2.777 -7.449)" stroke-miterlimit="10" stroke-width="0.227"></path><path id="Trazado_1525" data-name="Trazado 1525" d="M23.553,12.779a.4.4,0,0,0,.8,0v-.018a.4.4,0,0,0-.8,0Z" transform="translate(-2.777 -7.449)" stroke-miterlimit="10" stroke-width="0.227"></path><path id="Trazado_1526" data-name="Trazado 1526" d="M28.56,9.538a.4.4,0,0,0,.4.4h.039a.4.4,0,0,0,0-.793h-.039a.4.4,0,0,0-.4.4Z" transform="translate(-2.777 -7.449)" stroke-miterlimit="10" stroke-width="0.227"></path><path id="Trazado_1527" data-name="Trazado 1527" d="M6.443,12.748a.4.4,0,0,0,.031.53.41.41,0,0,0,.567,0h0a.425.425,0,0,0,.05-.06,6.491,6.491,0,0,1,9.041-1.5.4.4,0,0,0,.529-.6.463.463,0,0,0-.05-.042,7.237,7.237,0,0,0-4.227-1.36,7.38,7.38,0,0,0-1.207.1,7.247,7.247,0,0,0-4.733,2.93Z" transform="translate(-2.777 -7.449)" stroke-miterlimit="10" stroke-width="0.227"></path><path id="Trazado_1528" data-name="Trazado 1528" d="M9.022,18.869l-.02.01a.4.4,0,0,0-.169.161l-.012.025a.055.055,0,0,1-.011.026.4.4,0,0,0-.016.239.376.376,0,0,0,.061.134,4.275,4.275,0,0,0,5.953,1.056.4.4,0,0,0-.094-.708.392.392,0,0,0-.3.022h0a.419.419,0,0,0-.053.033,3.49,3.49,0,0,1-4.847-.856.415.415,0,0,0-.084-.088l-.011-.009-.02-.014.029-.069h0l-.04.063-.018-.01-.039-.018a.394.394,0,0,0-.292,0L8.993,18.8h0Z" transform="translate(-2.777 -7.449)" stroke-miterlimit="10" stroke-width="0.227"></path><path id="Trazado_1529" data-name="Trazado 1529" d="M14.376,19.765Z" transform="translate(-2.777 -7.449)" stroke-miterlimit="10" stroke-width="0.227"></path><path id="Trazado_1530" data-name="Trazado 1530" d="M5.006,9.934h.039a.4.4,0,1,0,0-.793H5.006a.4.4,0,1,0,0,.793Z" transform="translate(-2.777 -7.449)" stroke-miterlimit="10" stroke-width="0.227"></path><path id="Trazado_1531" data-name="Trazado 1531" d="M5.882,16.561v-.027a.4.4,0,0,0-.793.027,7.291,7.291,0,0,0,6.773,7.719.372.372,0,0,0,.059,0,.4.4,0,0,0,0-.8h0a6.493,6.493,0,0,1-6.033-6.9A.193.193,0,0,0,5.882,16.561Z" transform="translate(-2.777 -7.449)" stroke-miterlimit="10" stroke-width="0.227"></path><path id="Trazado_1532" data-name="Trazado 1532" d="M17.818,15.085a5.789,5.789,0,0,0-7.38-3.535.4.4,0,0,0,.265.753,4.987,4.987,0,0,1,6.364,3.048.4.4,0,1,0,.751-.265Z" transform="translate(-2.777 -7.449)" stroke-miterlimit="10" stroke-width="0.227"></path><path id="Trazado_1533" data-name="Trazado 1533" d="M5.006,24.857h.039a.4.4,0,1,0,0-.793H5.006a.4.4,0,0,0,0,.793Z" transform="translate(-2.777 -7.449)" stroke-miterlimit="10" stroke-width="0.227"></path><path id="Trazado_1534" data-name="Trazado 1534" d="M11.953,13.548a.4.4,0,0,0,0-.8h-.062A4.281,4.281,0,0,0,8.1,17.442a.4.4,0,0,0,.8-.012.432.432,0,0,0-.006-.067,3.48,3.48,0,0,1,3.06-3.818Z" transform="translate(-2.777 -7.449)" stroke-miterlimit="10" stroke-width="0.227"></path><path id="Trazado_1535" data-name="Trazado 1535" d="M30.192,7.563H3.808a.921.921,0,0,0-.918.918V25.519a.921.921,0,0,0,.918.918H30.192a.921.921,0,0,0,.918-.918V8.481A.921.921,0,0,0,30.192,7.563Zm.119,17.957a.12.12,0,0,1-.036.084.113.113,0,0,1-.083.035H3.808a.113.113,0,0,1-.084-.036.12.12,0,0,1-.035-.083V8.481A.12.12,0,0,1,3.725,8.4a.113.113,0,0,1,.083-.035H30.192a.113.113,0,0,1,.084.036.12.12,0,0,1,.035.083Z" transform="translate(-2.777 -7.449)" stroke-miterlimit="10" stroke-width="0.227"></path><path id="Trazado_1536" data-name="Trazado 1536" d="M10.738,18.144a1.969,1.969,0,0,1-.326-1.484.4.4,0,0,0-.325-.453.49.49,0,0,0-.07,0,.4.4,0,0,0-.392.331,2.781,2.781,0,0,0,2.254,3.216.4.4,0,0,0,.137-.787h0a1.967,1.967,0,0,1-1.277-.824Z" transform="translate(-2.777 -7.449)" stroke-miterlimit="10" stroke-width="0.227"></path></svg>