<svg xmlns="http://www.w3.org/2000/svg" viewBox="0 0 28.447 25.782" color="var(--color-veryHight)" stroke="var(--color-veryHight)" class="basicIconStyles__Svg-sc-h2khud-0 LbuhQ"><path id="Trazado_1546" data-name="Trazado 1546" d="M30.215,17.5H27.94a.4.4,0,0,0-.287.113l-.96.96c-.007.074-19.292,0-19.327.025a.09.09,0,0,1-.061-.025l-.959-.955A.4.4,0,0,0,6.06,17.5H3.785a.9.9,0,0,0-.9.9v2.193a.406.406,0,0,0,.119.287l.6.605v1.107l-.6.605a.4.4,0,0,0-.119.286v3.031a.9.9,0,0,0,.9.9h.723v1.723a.652.652,0,0,0,.651.651h16.39a.652.652,0,0,0,.651-.651V27.4h.855v1.723a.651.651,0,0,0,.651.651h5.136a.652.652,0,0,0,.651-.651V27.4h.723a.9.9,0,0,0,.9-.9V23.474a.4.4,0,0,0-.119-.286l-.6-.605V21.474l.6-.6a.406.406,0,0,0,.119-.287V18.391a.9.9,0,0,0-.9-.9Zm-4.685,1.913v2.216h-1.02V19.408Zm-3.364,0v2.216h-1.02V19.408Zm-9.315,0v2.216h-1.02V19.408Zm-3.364,0v2.216H8.467V19.408Zm-.508,7.185,1.308-1.308a.09.09,0,0,1,.061-.025c.083.026,13.308-.049,13.365.025l1.307,1.308Zm-3.661.81h2v1.564h-2Zm2.814,0h2v1.564h-2Zm2.813,0h2v1.564h-2Zm2.814,0h2v1.564h-2Zm2.813,0h2v1.564h-2Zm4.818,1.564h-2V27.4h2ZM23.865,27.4h2v1.564h-2Zm4.818,1.564h-2V27.4h2ZM30.3,20.416l-.607.6a.4.4,0,0,0-.113.287v1.444a.4.4,0,0,0,.113.287l.605.6v2.867a.085.085,0,0,1-.086.085H26.166l-1.881-1.88a.887.887,0,0,0-.632-.263H10.347a.892.892,0,0,0-.634.263l-1.88,1.88H3.785a.084.084,0,0,1-.085-.085V23.641l.606-.6a.4.4,0,0,0,.113-.287V21.307a.409.409,0,0,0-.113-.287l-.6-.6V18.391a.085.085,0,0,1,.085-.086H5.893l.841.841a1.122,1.122,0,0,0,.928.263v2.38a.651.651,0,0,0,.648.652H9.647a.651.651,0,0,0,.649-.651v-2.38h.729v2.38a.651.651,0,0,0,.648.651h1.337a.651.651,0,0,0,.649-.651v-2.38h6.68v2.38a.649.649,0,0,0,.649.651h1.337a.651.651,0,0,0,.651-.651v-2.38h.729v2.38a.651.651,0,0,0,.649.651h1.336a.651.651,0,0,0,.649-.651v-2.38a1.12,1.12,0,0,0,.928-.263l.841-.841h2.1a.085.085,0,0,1,.085.085Zm.69-12.823a.41.41,0,0,0,.119-.287V5.117a.9.9,0,0,0-.9-.9H27.94a.406.406,0,0,0-.287.113l-.96.959a.085.085,0,0,1-.06.033C26.556,5.3,7.367,5.374,7.305,5.3l-.959-.961a.406.406,0,0,0-.287-.113H3.785a.9.9,0,0,0-.9.9V7.311a.408.408,0,0,0,.119.282l.6.6V9.306l-.6.6a.406.406,0,0,0-.119.29v3.035a.9.9,0,0,0,.9.894h.723v1.726a.651.651,0,0,0,.651.649h16.39a.651.651,0,0,0,.651-.649V14.132h.855v1.724a.649.649,0,0,0,.651.649h5.136a.651.651,0,0,0,.651-.649V14.13h.723a.9.9,0,0,0,.9-.9V10.2a.406.406,0,0,0-.119-.287l-.6-.6V8.2ZM25.528,6.13V8.352h-1.02V6.135Zm-3.364,0V8.352h-1.02V6.135Zm-9.315,0V8.352H11.835V6.135Zm-3.364,0V8.352H8.466V6.135Zm-.507,7.185,1.308-1.3a.085.085,0,0,1,.06-.025c.083.026,13.309-.05,13.365.025l1.308,1.308Zm-3.661.811h2v1.564h-2Zm2.813,0h2v1.564h-2Zm2.814,0h2v1.564h-2Zm2.813,0h2v1.564h-2Zm2.814,0h2v1.564h-2Zm4.817,1.564h-2V14.127h2Zm2.475-1.564h2v1.564h-2Zm4.817,1.564h-2V14.127h2ZM30.3,7.14l-.606.607a.406.406,0,0,0-.113.287V9.478a.406.406,0,0,0,.113.287l.6.6v2.867a.086.086,0,0,1-.085.085H26.166l-1.881-1.875a.89.89,0,0,0-.632-.263H10.347a.892.892,0,0,0-.634.263l-1.88,1.875H3.785a.085.085,0,0,1-.085-.085V10.369l.606-.605a.4.4,0,0,0,.113-.286V8.034a.4.4,0,0,0-.113-.287L3.7,7.14V5.117a.084.084,0,0,1,.085-.085H5.893l.841.841a1.118,1.118,0,0,0,.928.262v2.38a.651.651,0,0,0,.649.651H9.647a.651.651,0,0,0,.649-.651V6.135h.729v2.38a.649.649,0,0,0,.648.646h1.337a.649.649,0,0,0,.649-.649V6.131h6.68v2.38a.648.648,0,0,0,.649.649h1.337a.649.649,0,0,0,.651-.649V6.131h.729v2.38a.649.649,0,0,0,.649.649h1.336a.651.651,0,0,0,.649-.649V6.131a1.123,1.123,0,0,0,.928-.262l.838-.839h2.108a.085.085,0,0,1,.085.086Z" transform="translate(-2.777 -4.108)" stroke-miterlimit="10" stroke-width="0.227"></path></svg>