<svg xmlns="http://www.w3.org/2000/svg" viewBox="0 0 22.401 28.447" color="var(--color-veryHight)" stroke="var(--color-veryHight)" class="basicIconStyles__Svg-sc-h2khud-0 LbuhQ"><path id="Trazado_1512" data-name="Trazado 1512" d="M25.565,10.427a9.328,9.328,0,0,0-2.885-3.771l-.012-.012a.212.212,0,0,0-.058-.045l-.015-.009a9.225,9.225,0,0,0-4.361-1.8h-.012A9.322,9.322,0,0,0,9.681,8.3l-.012.014a.264.264,0,0,0-.048.06l-.009.015A9.234,9.234,0,0,0,7.82,12.745v.019a9.259,9.259,0,0,0,.618,4.743l.026.062h0A9.352,9.352,0,0,0,11.332,21.3a9.215,9.215,0,0,0,4.445,1.865H15.8a9.317,9.317,0,0,0,8.533-3.513l.014-.014a.235.235,0,0,0,.046-.06l.008-.012a9.231,9.231,0,0,0,1.8-4.36v-.018a9.25,9.25,0,0,0-.619-4.743ZM22.534,7.494a8.511,8.511,0,0,1,2.133,2.747l.01.022v.1l-5.11,1.779-.045-.06a3.173,3.173,0,0,0-.493-.519l-.08-.067L22.456,7.43ZM19.4,13.98a2.362,2.362,0,0,1-2.4,2.417h0A2.419,2.419,0,0,1,17,11.56,2.365,2.365,0,0,1,19.4,13.98Zm-.952-8.406.1.018a8.451,8.451,0,0,1,3.22,1.321l.1.066L18.307,11.1l-.069-.028a3.1,3.1,0,0,0-.691-.2l-.1-.018Zm-4.3.365a8.442,8.442,0,0,1,2.833-.491c.188,0,.386.007.609.023l.113.008-1.02,5.356-.075.009a3.06,3.06,0,0,0-.7.168l-.1.036L14.053,5.973Zm-3.633,2.5A8.528,8.528,0,0,1,13.26,6.312l.1-.052,1.793,5.153-.06.044a3.117,3.117,0,0,0-.52.493l-.067.079L10.45,8.522Zm-1.9,3.983A8.452,8.452,0,0,1,9.933,9.207l.065-.1,4.124,3.562-.028.069a3.187,3.187,0,0,0-.2.69l-.017.1L8.6,12.527Zm.349,4.4A8.413,8.413,0,0,1,8.5,13.38l.008-.113,5.354,1.02.009.074a3.179,3.179,0,0,0,.17.7l.035.1L9,16.925Zm2.5,3.633a8.552,8.552,0,0,1-2.133-2.748l-.051-.1,5.153-1.793.044.061a3.287,3.287,0,0,0,.493.522l.079.067-3.508,4.062Zm4.08,1.92-.1-.018a8.429,8.429,0,0,1-3.22-1.319l-.1-.065,3.56-4.123.069.028a3.158,3.158,0,0,0,.69.2l.1.018Zm4.3-.366A8.455,8.455,0,0,1,17,22.508c-.176,0-.366-.008-.6-.024l-.113-.008,1.02-5.354.075-.009a3.222,3.222,0,0,0,.7-.17l.1-.036,1.768,5.08Zm3.635-2.506a8.522,8.522,0,0,1-2.691,2.1l-.163.077-1.787-5.145.06-.045a3.173,3.173,0,0,0,.522-.493l.067-.079,4.061,3.508Zm1.905-3.984a8.442,8.442,0,0,1-1.3,3.193L24,18.843,19.88,15.281l.029-.069a3.211,3.211,0,0,0,.2-.69l.018-.1L25.4,15.427Zm.143-1.506c0,.173-.008.355-.022.553l-.009.113-5.354-1.02-.009-.074a3.125,3.125,0,0,0-.17-.7l-.035-.1L25,11.031l.034.1a8.475,8.475,0,0,1,.492,2.85Z" transform="translate(-5.799 -2.777)" stroke-miterlimit="10" stroke-width="0.227"></path><path id="Trazado_1513" data-name="Trazado 1513" d="M26.695,2.89H7.307A1.4,1.4,0,0,0,5.913,4.284V23.671a1.4,1.4,0,0,0,1.394,1.394h3.276l1.837,2.448H11.138a.741.741,0,0,0-.7.978l.707,2.09a.781.781,0,0,0,.739.529H22.118a.779.779,0,0,0,.739-.529l.707-2.092a.745.745,0,0,0-.7-.977H21.156l1.837-2.448h3.7a1.387,1.387,0,0,0,1.387-1.336l.006-.1V4.284A1.4,1.4,0,0,0,26.695,2.89ZM11.508,25.065h2.234l1.1,2.448h-1.5Zm3.048,0h4.462l-1.1,2.448H15.663Zm8.3,3.19-.711,2.118H11.856l-.714-2.114Zm-2.63-.742h-1.5l1.1-2.448h2.235Zm7.117-3.842a.653.653,0,0,1-.652.652H7.307a.653.653,0,0,1-.652-.652V4.284a.654.654,0,0,1,.653-.652H26.695a.653.653,0,0,1,.652.652Z" transform="translate(-5.799 -2.777)" stroke-miterlimit="10" stroke-width="0.227"></path></svg>