<svg xmlns="http://www.w3.org/2000/svg" viewBox="0 0 21.266 28.488" color="var(--color-veryHight)" stroke="var(--color-veryHight)" class="basicIconStyles__Svg-sc-h2khud-0 LbuhQ"><path id="Trazado_1596" data-name="Trazado 1596" d="M18.008,6.789l.257,1.029h1.3l-.576-1.029Z" transform="translate(-6.367 -2.777)" stroke-miterlimit="10" stroke-width="0.227"></path><path id="Trazado_1597" data-name="Trazado 1597" d="M26.213,14.781h-1.7l-.185-1.447v-.011l.774-3.49a2.229,2.229,0,0,0-1.145-2.448l-1.133-.447-1.7-2.849a2.207,2.207,0,0,0-1.966-1.2H14.838a2.207,2.207,0,0,0-1.965,1.2L11.18,6.938l-1.141.453A2.227,2.227,0,0,0,8.906,9.836l.776,3.5L9.5,14.784H7.787A1.309,1.309,0,0,0,6.48,16.093v.68a.85.85,0,0,0,.85.849H7.4V22.49A1.309,1.309,0,0,0,8.7,23.8h6.926v3.79H9.613a1.761,1.761,0,1,0,1.523,2.645l.018-.032H22.846l.018.032a1.761,1.761,0,1,0,1.523-2.645H18.372V23.8H25.3a1.309,1.309,0,0,0,1.307-1.307v-4.87h.065a.85.85,0,0,0,.85-.849v-.681a1.309,1.309,0,0,0-1.307-1.312Zm-16.6,15.55a.98.98,0,1,1,.98-.978A.98.98,0,0,1,9.616,30.331Zm14.767-1.961a.98.98,0,1,1-.98.983A.98.98,0,0,1,24.384,28.371ZM7.265,16.839v-.746a.524.524,0,0,1,.522-.522H9.616a.524.524,0,0,1,.524.522v.751Zm1.961,6.174H8.7a.524.524,0,0,1-.522-.522V17.623H9.225Zm3.2,0H10.008v-.98A1.439,1.439,0,0,1,11.447,20.6h.979Zm0-3.2h-.979a2.207,2.207,0,0,0-1.333.453l-.105.082V17.623h.066a.85.85,0,0,0,.849-.85v-.68a1.308,1.308,0,0,0-.629-1.112l-.036-.023.205-1.587a.423.423,0,0,0,0-.135L9.67,9.671a1.445,1.445,0,0,1,.68-1.554l.793-.313,1.29,5.6Zm10.5,8.559-.059.1a1.742,1.742,0,0,0-.245.882v.065H11.381v-.063a1.742,1.742,0,0,0-.245-.882l-.059-.1Zm-6.511-.783V23.8h1.176v3.79Zm4.378-4.574H13.21V20.6h7.58Zm0-9.67v6.468H13.21V13.344a.492.492,0,0,0-.009-.091L11.841,7.36l1.718-2.892a1.438,1.438,0,0,1,1.285-.793h4.309a1.44,1.44,0,0,1,1.287.793l1.716,2.888L20.8,13.249a.47.47,0,0,0-.007.1Zm3.2,9.67H21.574V20.6h.979a1.439,1.439,0,0,1,1.438,1.437Zm0-2.663-.105-.082a2.207,2.207,0,0,0-1.333-.453h-.979V13.381L22.864,7.8l.782.308a1.446,1.446,0,0,1,.69,1.557l-.793,3.569a.41.41,0,0,0,0,.133l.205,1.587-.036.023a1.308,1.308,0,0,0-.629,1.113v.68a.85.85,0,0,0,.849.849H24Zm1.829,2.141a.524.524,0,0,1-.522.522h-.524v-5.39h1.046Zm.915-5.652H23.86v-.746a.524.524,0,0,1,.524-.522h1.829a.524.524,0,0,1,.522.522Z" transform="translate(-6.367 -2.777)" stroke-miterlimit="10" stroke-width="0.227"></path><path id="Trazado_1598" data-name="Trazado 1598" d="M15.735,7.818l.257-1.029h-.977L14.44,7.818Z" transform="translate(-6.367 -2.777)" stroke-miterlimit="10" stroke-width="0.227"></path></svg>