<svg xmlns="http://www.w3.org/2000/svg" viewBox="0 0 28.45 15.64" color="var(--color-veryHight)" stroke="var(--color-veryHight)" class="basicIconStyles__Svg-sc-h2khud-0 LbuhQ"><path id="Trazado_1599" data-name="Trazado 1599" d="M30.617,11.864,27.524,9.545a1.247,1.247,0,0,0-.74-.252H7.216a1.247,1.247,0,0,0-.74.247L3.383,11.864a1.247,1.247,0,0,0-.493.987v8.468A1.225,1.225,0,0,0,3.1,22L4.53,24.152a1.232,1.232,0,0,0,1.023.554H12.98a1.23,1.23,0,0,0,.873-.362l.554-.554h5.179l.554.554a1.23,1.23,0,0,0,.873.362h7.434a1.232,1.232,0,0,0,1.027-.55L30.906,22a1.227,1.227,0,0,0,.207-.68V12.851a1.247,1.247,0,0,0-.5-.987ZM7.055,10.05h19.89L29.6,12.042H4.4Zm-.5,13.9H5.305L3.979,21.955H6.552Zm20.14,0H20.818L19.9,23.03H14.1l-.916.916H7.308V21.955h19.38Zm2.007,0H27.453V21.955H30.03ZM30.354,21.2H3.646V12.807H30.354Z" transform="translate(-2.777 -9.18)" stroke-miterlimit="10" stroke-width="0.227"></path><rect id="Rectángulo_819" data-name="Rectángulo 819" width="15.5" height="0.756" transform="translate(1.945 4.695)" stroke-miterlimit="10" stroke-width="0.227"></rect><rect id="Rectángulo_825" data-name="Rectángulo 825" width="7" height="0.756" transform="translate(19.338 4.695)" stroke-miterlimit="10" stroke-width="0.227"></rect><rect id="Rectángulo_828" data-name="Rectángulo 828" width="15.5" height="0.756" transform="translate(1.945 6.527)" stroke-miterlimit="10" stroke-width="0.227"></rect><rect id="Rectángulo_834" data-name="Rectángulo 834" width="7" height="0.756" transform="translate(19.338 6.527)" stroke-miterlimit="10" stroke-width="0.227"></rect><rect id="Rectángulo_837" data-name="Rectángulo 837" width="15.5" height="0.756" transform="translate(1.945 8.357)" stroke-miterlimit="10" stroke-width="0.227"></rect><rect id="Rectángulo_843" data-name="Rectángulo 843" width="1.672" height="0.756" transform="translate(22.084 8.357)" stroke-miterlimit="10" stroke-width="0.227"></rect><rect id="Rectángulo_844" data-name="Rectángulo 844" width="1.672" height="0.756" transform="translate(1.945 10.189)" stroke-miterlimit="10" stroke-width="0.227"></rect><rect id="Rectángulo_845" data-name="Rectángulo 845" width="9.911" height="0.756" transform="translate(4.691 10.189)" stroke-miterlimit="10" stroke-width="0.227"></rect><rect id="Rectángulo_846" data-name="Rectángulo 846" width="1.672" height="0.756" transform="translate(15.676 10.189)" stroke-miterlimit="10" stroke-width="0.227"></rect><rect id="Rectángulo_847" data-name="Rectángulo 847" width="1.672" height="0.756" transform="translate(19.338 10.189)" stroke-miterlimit="10" stroke-width="0.227"></rect><rect id="Rectángulo_848" data-name="Rectángulo 848" width="1.672" height="0.756" transform="translate(22.084 10.189)" stroke-miterlimit="10" stroke-width="0.227"></rect><rect id="Rectángulo_849" data-name="Rectángulo 849" width="1.672" height="0.756" transform="translate(24.831 10.189)" stroke-miterlimit="10" stroke-width="0.227"></rect></svg>